<?xml version="1.0" standalone="no"?>
<!DOCTYPE svg PUBLIC "-//W3C//DTD SVG 20010904//EN"
 "http://www.w3.org/TR/2001/REC-SVG-20010904/DTD/svg10.dtd">
<svg version="1.0" xmlns="http://www.w3.org/2000/svg"
 width="500.000000pt" height="500.000000pt" viewBox="0 0 500.000000 500.000000"
 preserveAspectRatio="xMidYMid meet">

<g transform="translate(0.000000,500.000000) scale(0.100000,-0.100000)"
fill="#000000" stroke="none">
<path d="M398 3027 l-287 -222 0 -397 -1 -398 585 0 585 0 0 165 0 165 -80 0
-80 0 0 -90 0 -90 -425 0 -425 0 0 283 1 282 156 120 c85 66 159 122 164 123
5 2 9 -7 9 -20 0 -73 44 -145 111 -178 50 -26 140 -26 239 0 91 24 130 25 130
5 0 -19 -41 -108 -74 -162 l-26 -42 60 -41 c34 -23 68 -39 75 -36 23 9 115
207 121 263 15 119 -59 193 -191 193 -22 0 -75 -9 -119 -20 -90 -23 -137 -25
-154 -8 -15 15 -15 91 -1 156 l12 49 -48 61 c-27 34 -49 62 -49 62 -1 0 -130
-100 -288 -223z"/>
<path d="M4070 2795 l0 -95 -40 0 -40 0 0 -59 0 -60 38 -3 37 -3 5 -217 c5
-199 7 -219 26 -244 38 -52 66 -65 147 -71 l77 -6 0 72 c0 64 -2 71 -20 71
-11 0 -29 9 -40 20 -19 19 -20 31 -18 198 l3 177 38 3 37 3 0 59 0 59 -37 3
-38 3 -3 93 -3 92 -84 0 -85 0 0 -95z"/>
<path d="M1585 2720 c-33 -5 -70 -12 -82 -17 l-22 -8 21 -50 c12 -27 22 -51
23 -53 1 -1 33 3 71 9 93 16 159 6 196 -31 25 -26 28 -35 28 -99 l0 -70 -36
24 c-49 34 -108 48 -174 43 -94 -7 -174 -61 -211 -143 -79 -173 122 -356 319
-291 28 10 62 26 76 37 l26 20 0 -25 c0 -26 0 -26 89 -26 l89 0 7 205 c11 291
0 352 -69 412 -61 54 -216 82 -351 63z m175 -375 c110 -57 60 -195 -70 -195
-127 0 -179 128 -77 190 38 24 106 26 147 5z"/>
<path d="M2442 2694 c-29 -14 -68 -44 -87 -67 l-35 -41 0 57 0 57 -85 0 -85 0
0 -470 0 -470 85 0 85 0 0 196 0 197 50 -47 c63 -59 109 -79 181 -79 106 -1
204 74 251 192 18 45 22 76 23 156 0 89 -3 107 -28 160 -33 71 -96 140 -152
166 -59 28 -139 25 -203 -7z m121 -130 c14 -11 39 -41 54 -69 23 -41 28 -62
28 -120 0 -214 -203 -297 -294 -120 -34 66 -36 170 -4 230 22 41 66 88 93 98
27 11 97 0 123 -19z"/>
<path d="M3023 2709 c-48 -11 -50 -17 -23 -76 18 -41 19 -42 52 -33 44 13 158
13 196 -1 47 -16 62 -48 62 -129 0 -38 -3 -70 -6 -70 -3 0 -17 9 -31 20 -40
31 -127 53 -181 45 -126 -18 -222 -114 -222 -220 0 -67 47 -143 114 -185 78
-48 206 -45 281 6 44 30 45 30 45 -1 0 -25 1 -25 90 -25 l90 0 0 243 c0 140
-5 258 -11 280 -15 54 -71 112 -127 132 -56 21 -265 29 -329 14z m229 -365
c96 -49 64 -179 -49 -199 -59 -9 -127 21 -149 68 -49 104 82 190 198 131z"/>
<path d="M3883 2700 c-18 -10 -45 -38 -60 -62 l-28 -42 -3 52 -3 52 -90 0 -89
0 0 -330 0 -331 88 3 87 3 5 220 c4 184 8 225 22 246 17 26 73 59 101 59 41 0
47 11 47 81 0 65 -1 69 -22 69 -13 0 -37 -9 -55 -20z"/>
<path d="M4547 2705 c-93 -34 -136 -97 -137 -195 0 -95 49 -149 180 -196 108
-38 147 -60 153 -86 10 -36 -14 -72 -58 -87 -35 -12 -45 -11 -78 2 -22 10 -41
26 -47 42 -9 24 -13 25 -91 25 l-82 0 6 -35 c15 -91 92 -137 239 -143 115 -5
179 12 226 61 81 84 68 215 -26 270 -18 11 -74 35 -124 53 -126 47 -160 82
-137 141 23 60 91 72 140 24 16 -16 29 -37 29 -45 0 -13 13 -16 75 -16 l76 0
-7 38 c-20 109 -99 163 -239 161 -33 0 -77 -7 -98 -14z"/>
</g>
</svg>
